<svg width="153" height="171" viewBox="0 0 153 171" fill="none" xmlns="http://www.w3.org/2000/svg">
<path d="M118.483 70.3298L117.697 70.6345C111.006 73.226 104.496 66.4884 107.315 59.891C111.325 52.0061 129.842 41.3239 115.527 28.1765C105.29 18.774 84.2807 35.59 70.7758 51.3724C53.2467 71.8577 62.3024 92.4722 79.3197 96.6568C91.5741 99.6702 69.2325 110.525 52.6375 93.8808C32.554 73.7378 51.6333 44.2901 64.9336 30.6665C78.2338 17.0428 107.832 -5.52019 129.749 16.8186C151.004 38.4832 132.426 62.1135 119.611 69.7866C119.25 70.003 118.876 70.1776 118.483 70.3298Z" fill="white"/>
<path d="M34.1459 99.7246L34.9326 99.4198C41.6228 96.8283 48.1333 103.566 45.3139 110.163C41.3044 118.048 22.7874 128.73 37.1018 141.878C47.3388 151.28 68.3485 134.464 81.8533 118.682C99.3824 98.1966 90.3267 77.5822 73.3094 73.3975C61.055 70.3841 83.3967 59.5295 99.9916 76.1735C120.075 96.3165 100.996 125.764 87.6956 139.388C74.3953 153.012 44.7969 175.575 22.8803 153.236C1.62511 131.571 20.2033 107.941 33.0181 100.268C33.3795 100.051 33.7531 99.8767 34.1459 99.7246Z" fill="white"/>
</svg>
