<svg width="229" height="229" viewBox="0 0 229 229" fill="none" xmlns="http://www.w3.org/2000/svg">
<g filter="url(#filter0_d_935_12)">
<rect x="49.7139" y="49.7139" width="129" height="129" rx="23" fill="#350E8F"/>
</g>
<g filter="url(#filter1_d_935_12)">
<circle cx="114.198" cy="114.208" r="39.9838" fill="white"/>
</g>
<g clip-path="url(#clip0_935_12)">
<path d="M133.454 110.789L125.553 116.889C125.521 116.913 125.489 116.941 125.454 116.965L118.77 122.126C118.866 121.778 118.945 121.425 119.007 121.073C119.103 120.526 119.158 119.971 119.17 119.414C119.175 119.23 119.173 119.043 119.169 118.86C119.159 118.501 119.132 118.143 119.088 117.785L131.439 108.249C131.702 108.046 131.943 107.825 132.158 107.59C132.707 107 133.111 106.317 133.367 105.59C133.552 105.066 133.66 104.518 133.688 103.965C133.718 103.397 133.664 102.822 133.523 102.266C133.473 102.07 133.414 101.876 133.345 101.685C133.137 101.115 132.833 100.568 132.432 100.063C131.991 99.5084 131.47 99.0542 130.897 98.704C130.775 98.6292 130.652 98.5591 130.526 98.4934C129.977 98.2085 129.39 98.0125 128.787 97.9082C128.267 97.8187 127.737 97.7975 127.213 97.8443C126.436 97.9154 125.667 98.1386 124.954 98.5222C124.67 98.6748 124.395 98.8525 124.133 99.0533L116.133 105.23C115.559 105.673 115.091 106.202 114.733 106.784C114.264 107.543 113.985 108.392 113.902 109.26C113.896 109.309 113.895 109.359 113.891 109.409L110.831 111.772C110.723 111.301 110.657 110.823 110.627 110.342C110.609 110.057 110.606 109.773 110.617 109.489C110.624 109.231 110.645 108.977 110.676 108.719C110.695 108.563 110.719 108.408 110.745 108.253C110.873 107.517 111.094 106.801 111.403 106.114C111.717 105.413 112.129 104.746 112.629 104.135C113.058 103.609 113.555 103.123 114.116 102.69C114.151 102.663 114.183 102.638 114.217 102.613L122.118 96.5109C122.378 96.3099 122.647 96.1242 122.922 95.9562C123.577 95.5536 124.267 95.2416 124.975 95.0181C125.78 94.7656 126.609 94.6264 127.44 94.5977C128.182 94.5728 128.926 94.6367 129.652 94.7872C129.966 94.8516 130.275 94.9323 130.581 95.0295C131.015 95.1661 131.44 95.3352 131.85 95.5385C132.457 95.8352 133.035 96.2004 133.571 96.6325C134.09 97.0505 134.572 97.5311 135.002 98.0726C135.395 98.5664 135.728 99.0866 136.001 99.6282C136.324 100.267 136.567 100.935 136.725 101.613C136.836 102.083 136.908 102.557 136.942 103.033C136.965 103.348 136.97 103.665 136.959 103.98C136.933 104.711 136.821 105.439 136.616 106.143C136.389 106.931 136.053 107.691 135.612 108.4C135.222 109.025 134.75 109.61 134.197 110.14C133.965 110.362 133.718 110.574 133.457 110.777L133.454 110.789Z" fill="#350E8F"/>
<path d="M113.413 126.258L113.415 126.259L105.592 132.301C105.305 132.523 105.011 132.724 104.706 132.906C104.047 133.303 103.351 133.607 102.637 133.822C101.824 134.067 100.988 134.198 100.151 134.216C99.4487 134.232 98.7463 134.166 98.0582 134.022C97.6879 133.946 97.3205 133.846 96.9608 133.723C96.5588 133.588 96.1653 133.423 95.7845 133.233C95.1536 132.919 94.554 132.527 94.002 132.064C93.536 131.674 93.1009 131.23 92.7084 130.737C92.2778 130.195 91.9196 129.619 91.6319 129.023C91.3345 128.406 91.1131 127.766 90.9659 127.114C90.8788 126.73 90.8186 126.343 90.7833 125.953C90.7484 125.579 90.738 125.204 90.7516 124.831C90.7749 124.139 90.8779 123.451 91.0612 122.782C91.2795 121.986 91.6066 121.215 92.044 120.498C92.4273 119.866 92.8931 119.275 93.4425 118.737C93.694 118.49 93.9632 118.256 94.2504 118.034L102.073 111.995L102.075 111.995C102.132 111.949 102.191 111.903 102.25 111.858L108.757 106.834C108.661 107.182 108.582 107.534 108.52 107.887C108.434 108.37 108.382 108.858 108.364 109.348C108.357 109.548 108.354 109.749 108.357 109.951C108.361 110.359 108.389 110.768 108.439 111.172L96.2657 120.572C95.9758 120.796 95.7126 121.04 95.4786 121.304C94.9382 121.907 94.5424 122.603 94.2995 123.341C94.1489 123.8 94.055 124.273 94.021 124.753C93.9746 125.436 94.0463 126.128 94.2451 126.795C94.2625 126.853 94.2801 126.908 94.2978 126.962C94.5057 127.595 94.8285 128.202 95.2696 128.757C95.6706 129.261 96.1376 129.683 96.6491 130.018C96.7504 130.086 96.8547 130.149 96.9592 130.209C97.5393 130.541 98.1659 130.771 98.8125 130.895C99.3261 130.993 99.8503 131.023 100.373 130.986C101.158 130.93 101.938 130.718 102.662 130.345C102.976 130.184 103.282 129.991 103.572 129.767L111.571 123.591C112.116 123.17 112.568 122.671 112.917 122.123C113.394 121.382 113.684 120.552 113.788 119.698C113.799 119.611 113.807 119.521 113.813 119.433C113.818 119.39 113.818 119.35 113.821 119.307L116.854 116.965C116.974 117.464 117.046 117.969 117.077 118.476C117.096 118.762 117.098 119.045 117.088 119.329C117.078 119.63 117.054 119.932 117.013 120.231C116.989 120.401 116.962 120.571 116.929 120.739C116.789 121.449 116.567 122.142 116.258 122.802C115.935 123.497 115.519 124.154 115.013 124.757C114.6 125.254 114.123 125.714 113.589 126.126C113.53 126.172 113.471 126.218 113.41 126.26L113.413 126.258Z" fill="#350E8F"/>
<path d="M125.34 107.863L104.651 123.84C104.646 123.846 104.638 123.85 104.632 123.857C104.275 124.132 103.85 124.265 103.43 124.262C102.856 124.26 102.288 124.006 101.906 123.526C101.524 123.045 101.41 122.441 101.545 121.892C101.643 121.486 101.876 121.114 102.233 120.838C102.257 120.819 102.278 120.803 102.302 120.787C102.302 120.787 102.302 120.787 102.302 120.784L122.895 104.883C122.895 104.883 122.895 104.883 122.897 104.883C122.919 104.864 122.943 104.845 122.965 104.826C123.287 104.578 123.663 104.446 124.043 104.425C124.658 104.389 125.279 104.642 125.688 105.157C126.098 105.672 126.198 106.329 126.016 106.907C125.904 107.265 125.684 107.596 125.362 107.842C125.354 107.848 125.349 107.852 125.341 107.859L125.34 107.863Z" fill="#350E8F"/>
</g>
<defs>
<filter id="filter0_d_935_12" x="10.8139" y="34.8139" width="176.8" height="176.8" filterUnits="userSpaceOnUse" color-interpolation-filters="sRGB">
<feFlood flood-opacity="0" result="BackgroundImageFix"/>
<feColorMatrix in="SourceAlpha" type="matrix" values="0 0 0 0 0 0 0 0 0 0 0 0 0 0 0 0 0 0 127 0" result="hardAlpha"/>
<feOffset dx="-15" dy="9"/>
<feGaussianBlur stdDeviation="11.95"/>
<feComposite in2="hardAlpha" operator="out"/>
<feColorMatrix type="matrix" values="0 0 0 0 0 0 0 0 0 0 0 0 0 0 0 0 0 0 0.25 0"/>
<feBlend mode="normal" in2="BackgroundImageFix" result="effect1_dropShadow_935_12"/>
<feBlend mode="normal" in="SourceGraphic" in2="effect1_dropShadow_935_12" result="shape"/>
</filter>
<filter id="filter1_d_935_12" x="56.3141" y="63.3241" width="109.768" height="109.768" filterUnits="userSpaceOnUse" color-interpolation-filters="sRGB">
<feFlood flood-opacity="0" result="BackgroundImageFix"/>
<feColorMatrix in="SourceAlpha" type="matrix" values="0 0 0 0 0 0 0 0 0 0 0 0 0 0 0 0 0 0 127 0" result="hardAlpha"/>
<feOffset dx="-3" dy="4"/>
<feGaussianBlur stdDeviation="7.45"/>
<feComposite in2="hardAlpha" operator="out"/>
<feColorMatrix type="matrix" values="0 0 0 0 0 0 0 0 0 0 0 0 0 0 0 0 0 0 0.25 0"/>
<feBlend mode="normal" in2="BackgroundImageFix" result="effect1_dropShadow_935_12"/>
<feBlend mode="normal" in="SourceGraphic" in2="effect1_dropShadow_935_12" result="shape"/>
</filter>
<clipPath id="clip0_935_12">
<rect width="43.4228" height="42.8112" fill="white" transform="translate(94.8774 90.544) rotate(6.92165)"/>
</clipPath>
</defs>
</svg>
